<?xml version="1.0" standalone="no"?>
<!DOCTYPE svg PUBLIC "-//W3C//DTD SVG 20010904//EN"
 "http://www.w3.org/TR/2001/REC-SVG-20010904/DTD/svg10.dtd">
<svg version="1.0" xmlns="http://www.w3.org/2000/svg"
 width="1080.000000pt" height="1080.000000pt" viewBox="0 0 1080.000000 1080.000000"
 preserveAspectRatio="xMidYMid meet">

<g transform="translate(0.000000,1080.000000) scale(0.100000,-0.100000)"
fill="#000000" stroke="none">
<path d="M0 5400 l0 -5400 5400 0 5400 0 0 5400 0 5400 -5400 0 -5400 0 0
-5400z m7099 3005 c17 -36 31 -69 31 -72 0 -3 12 -31 26 -62 34 -74 39 -85 63
-156 27 -82 189 -504 205 -535 7 -14 18 -43 24 -65 6 -22 36 -119 65 -215 98
-315 159 -535 158 -567 0 -12 4 -25 9 -28 6 -4 8 -10 5 -15 -3 -5 -1 -18 4
-29 6 -10 13 -39 15 -62 2 -24 7 -52 11 -61 11 -28 55 -320 55 -360 -1 -21 4
-38 9 -38 6 0 11 -17 11 -37 1 -42 6 -119 19 -263 18 -192 5 -665 -19 -695 -4
-5 -10 -37 -14 -70 -4 -33 -13 -85 -21 -115 -7 -30 -17 -75 -20 -100 -22 -154
-97 -354 -205 -544 -11 -20 -30 -53 -41 -73 -28 -50 -109 -152 -146 -182 -15
-14 -57 -51 -93 -84 -131 -119 -281 -201 -470 -255 -164 -46 -260 -56 -497
-49 -204 6 -330 20 -448 51 -33 8 -84 18 -112 22 -29 3 -58 12 -64 20 -26 31
-12 45 226 225 181 137 283 220 313 259 37 45 67 51 110 22 89 -61 275 -93
375 -65 26 8 47 17 47 21 0 4 13 22 29 40 25 28 30 44 36 110 9 93 26 125 96
172 99 68 102 72 104 129 1 28 -2 54 -6 57 -5 3 -2 18 6 34 12 23 25 31 54 36
41 7 91 45 91 70 0 19 -29 83 -47 105 -11 13 -10 24 2 67 13 44 22 55 55 72
22 11 53 20 69 20 16 0 33 5 36 10 3 6 15 10 27 10 11 0 33 8 49 17 45 27 40
77 -17 188 -26 50 -50 92 -53 95 -12 8 -51 90 -78 159 -18 49 -25 89 -28 156
-1 50 2 95 6 101 5 6 10 31 12 55 1 24 6 47 10 50 5 3 10 24 12 45 1 21 6 46
9 54 3 8 9 55 14 104 6 70 4 110 -10 194 -11 58 -24 112 -29 119 -6 6 -8 16
-5 22 4 5 -2 24 -13 43 -10 18 -22 48 -26 66 -4 18 -13 36 -21 39 -8 3 -14 10
-14 16 0 13 -49 77 -59 77 -16 0 -61 -53 -61 -71 0 -11 -3 -19 -8 -19 -4 0
-22 -26 -40 -57 -17 -32 -59 -96 -92 -143 -33 -47 -74 -105 -90 -130 -17 -25
-83 -97 -148 -160 -104 -102 -154 -150 -307 -290 -22 -20 -71 -63 -110 -95
-38 -32 -72 -61 -75 -64 -3 -4 -77 -72 -165 -153 -261 -239 -375 -365 -482
-533 -39 -60 -115 -205 -109 -205 3 0 -5 -21 -18 -47 -33 -67 -89 -270 -84
-305 3 -16 1 -31 -3 -34 -5 -3 -6 -32 -2 -64 4 -42 2 -60 -6 -60 -13 0 -16
-156 -2 -164 5 -3 7 -32 4 -65 -4 -38 -2 -61 6 -65 6 -4 11 -22 11 -40 0 -34
46 -261 56 -277 3 -5 16 -50 30 -100 70 -263 227 -542 398 -709 25 -24 46 -48
46 -52 0 -16 -46 -7 -80 15 -216 136 -333 257 -454 467 -109 189 -204 443
-227 605 -6 44 -15 85 -19 90 -3 6 -7 40 -8 76 -1 36 -6 78 -12 93 -13 35 -13
151 0 196 6 19 11 66 11 105 1 38 4 74 7 80 11 16 34 127 37 175 1 25 8 59 14
75 7 17 17 50 23 75 12 50 29 92 41 101 4 3 10 25 12 48 2 24 10 51 18 60 17
20 73 131 99 196 19 48 115 222 206 375 41 68 330 508 342 520 6 6 33 45 90
130 25 36 47 67 50 70 9 7 159 224 205 296 47 73 146 214 211 299 25 33 84
125 131 205 47 80 94 157 104 172 37 53 79 129 79 143 0 7 4 15 8 17 4 2 24
37 44 78 21 41 50 98 67 127 16 28 37 73 46 100 9 26 20 52 25 58 10 12 58
145 67 185 4 14 12 34 20 46 7 11 10 23 7 27 -8 7 12 87 32 134 8 18 12 43 8
58 -3 14 -1 31 5 39 7 8 11 18 10 22 -7 38 2 54 30 54 25 0 32 -7 60 -65z
m-1434 -556 c33 -17 74 -43 90 -58 17 -15 44 -38 62 -49 17 -12 56 -59 86
-105 126 -190 158 -284 157 -467 -1 -181 -21 -274 -91 -429 -37 -81 -140 -249
-200 -326 -25 -33 -85 -114 -132 -180 -48 -66 -123 -169 -167 -230 -44 -60
-80 -114 -80 -118 0 -4 -17 -31 -39 -60 -69 -94 -241 -429 -241 -469 0 -8 -4
-18 -9 -24 -8 -8 -72 -239 -87 -314 -3 -19 -10 -41 -15 -50 -4 -8 -10 -23 -13
-32 -12 -40 -71 -3 -63 39 2 13 1 25 -2 28 -8 4 -4 353 3 376 3 8 7 37 11 64
3 28 10 64 14 80 5 17 14 57 21 90 7 33 17 74 23 90 6 17 12 35 13 40 6 30 80
227 100 267 13 26 31 69 40 95 9 26 36 87 60 135 24 48 44 93 44 100 0 8 28
70 63 138 71 142 113 241 109 254 -1 4 3 18 11 30 16 24 57 136 57 155 0 7 11
36 25 64 14 28 24 56 21 62 -2 7 -1 16 4 21 27 29 70 316 72 479 0 58 -17 237
-27 276 -4 16 -2 30 4 34 6 3 9 11 6 16 -10 16 9 10 70 -22z m-948 -661 c17
-18 40 -54 51 -80 19 -43 52 -95 140 -217 54 -75 84 -122 110 -176 14 -27 30
-57 37 -65 45 -56 53 -252 16 -365 -33 -97 -87 -201 -137 -260 -98 -118 -142
-153 -169 -138 -13 7 -13 12 0 36 8 15 24 60 36 100 12 39 27 83 33 96 6 14
11 82 11 163 0 127 -2 141 -19 154 -11 8 -23 11 -27 7 -4 -5 -10 -75 -13 -158
-2 -82 -7 -168 -11 -190 -7 -48 -56 -154 -71 -155 -13 0 -29 31 -44 92 -7 26
-19 53 -27 60 -8 6 -21 24 -29 40 -8 16 -45 64 -83 106 -81 93 -121 160 -156
267 -55 163 -19 263 222 615 21 32 85 100 93 100 3 0 20 -15 37 -32z m-1024
-419 c120 -25 258 -79 368 -145 102 -61 256 -211 323 -314 27 -41 66 -100 87
-132 22 -31 39 -59 39 -62 0 -3 14 -28 30 -54 17 -27 30 -55 30 -63 0 -8 10
-30 22 -49 19 -30 61 -141 55 -146 -3 -3 -40 -6 -54 -5 -7 0 -13 10 -13 21 0
11 -4 20 -9 20 -5 0 -12 8 -15 18 -8 24 -164 177 -248 244 -103 82 -252 169
-299 175 -54 8 -50 -14 8 -42 50 -24 283 -257 378 -379 78 -98 163 -225 164
-243 1 -16 -37 -27 -52 -15 -19 15 -111 23 -557 48 -47 2 -98 11 -115 18 -16
8 -50 20 -75 26 -131 35 -289 139 -375 246 -14 18 -25 37 -25 43 0 6 -4 11 -8
11 -4 0 -18 21 -31 48 -12 26 -35 67 -51 92 -16 25 -38 70 -50 100 -12 30 -35
87 -52 125 -17 39 -34 79 -38 90 -20 49 -64 145 -91 198 -34 67 -37 102 -9
117 19 10 40 13 205 30 123 13 346 2 458 -21z m348 -1326 c126 -62 296 -184
409 -294 68 -66 170 -178 170 -187 0 -5 9 -18 21 -31 24 -26 101 -169 128
-238 10 -27 22 -57 26 -68 10 -23 8 -18 25 -75 23 -80 17 -357 -8 -382 -15
-15 -48 13 -57 50 -16 64 -93 202 -171 307 -122 164 -363 390 -583 545 -97 69
-177 136 -199 167 -38 55 1 192 63 222 40 19 118 12 176 -16z"/>
</g>
</svg>
